<?xml version="1.0" encoding="UTF-8"?>
<svg id="Layer_1" data-name="Layer 1" xmlns="http://www.w3.org/2000/svg" xmlns:xlink="http://www.w3.org/1999/xlink" viewBox="0 0 962.71 949.68">
  <defs>
    <style>
      .cls-1 {
        fill: url(#linear-gradient);
      }

      .cls-1, .cls-2, .cls-3, .cls-4, .cls-5, .cls-6, .cls-7, .cls-8 {
        stroke-width: 0px;
      }

      .cls-2 {
        fill: url(#linear-gradient-6);
      }

      .cls-3 {
        fill: url(#linear-gradient-5);
      }

      .cls-4 {
        fill: url(#linear-gradient-2);
      }

      .cls-5 {
        fill: url(#linear-gradient-7);
      }

      .cls-6 {
        fill: url(#linear-gradient-3);
      }

      .cls-7 {
        fill: url(#linear-gradient-8);
      }

      .cls-8 {
        fill: url(#linear-gradient-4);
      }
    </style>
    <linearGradient id="linear-gradient" x1="-1569.97" y1="-19989.33" x2="-1670.63" y2="-19529.12" gradientTransform="translate(19132.5 -7009.2) rotate(-107.66)" gradientUnits="userSpaceOnUse">
      <stop offset="0" stop-color="#1e1e1e"/>
      <stop offset=".2" stop-color="#3d3d3d"/>
      <stop offset=".33" stop-color="#4e4e4e"/>
      <stop offset=".35" stop-color="#525252"/>
      <stop offset=".5" stop-color="#6c6c6c"/>
      <stop offset=".66" stop-color="#7f7f7f"/>
      <stop offset=".82" stop-color="#8a8a8a"/>
      <stop offset="1" stop-color="#8e8e8e"/>
    </linearGradient>
    <linearGradient id="linear-gradient-2" x1="-1647.66" y1="-19826.44" x2="-1277.03" y2="-19455.3" gradientTransform="translate(19132.5 -7009.2) rotate(-107.66)" gradientUnits="userSpaceOnUse">
      <stop offset="0" stop-color="#8e8e8e"/>
      <stop offset=".43" stop-color="#4e4e4e"/>
      <stop offset="1" stop-color="#1e1e1e"/>
    </linearGradient>
    <linearGradient id="linear-gradient-3" x1="-1015.71" y1="-19993.05" x2="-1620.37" y2="-20565.32" gradientTransform="translate(19132.5 -7009.2) rotate(-107.66)" gradientUnits="userSpaceOnUse">
      <stop offset="0" stop-color="#13af9f"/>
      <stop offset=".17" stop-color="#0a9fa3"/>
      <stop offset=".34" stop-color="#008baa"/>
      <stop offset="1" stop-color="#07202c"/>
    </linearGradient>
    <linearGradient id="linear-gradient-4" x1="-1436.53" y1="-20361.72" x2="-929.19" y2="-19863.31" gradientTransform="translate(19132.5 -7009.2) rotate(-107.66)" gradientUnits="userSpaceOnUse">
      <stop offset="0" stop-color="#13af9f"/>
      <stop offset=".16" stop-color="#0d948f"/>
      <stop offset=".46" stop-color="#056675"/>
      <stop offset=".61" stop-color="#02556b"/>
      <stop offset="1" stop-color="#001f2e"/>
    </linearGradient>
    <linearGradient id="linear-gradient-5" x1="-1299.92" y1="-20225.57" x2="-2151.48" y2="-20222.51" gradientTransform="translate(19132.5 -7009.2) rotate(-107.66)" gradientUnits="userSpaceOnUse">
      <stop offset="0" stop-color="#fbb156"/>
      <stop offset=".61" stop-color="#d7732a"/>
      <stop offset="1" stop-color="#50260f"/>
    </linearGradient>
    <linearGradient id="linear-gradient-6" x1="-1829.82" y1="-20199.53" x2="-917.12" y2="-20348.06" gradientTransform="translate(19132.5 -7009.2) rotate(-107.66)" gradientUnits="userSpaceOnUse">
      <stop offset="0" stop-color="#fbb156"/>
      <stop offset=".23" stop-color="#e68d3c"/>
      <stop offset=".42" stop-color="#d7732a"/>
      <stop offset=".56" stop-color="#bc6221"/>
      <stop offset=".84" stop-color="#78390c"/>
      <stop offset="1" stop-color="#522200"/>
    </linearGradient>
    <linearGradient id="linear-gradient-7" x1="-1170.77" y1="-19601.89" x2="-1746.1" y2="-20344.95" gradientTransform="translate(19132.5 -7009.2) rotate(-107.66)" gradientUnits="userSpaceOnUse">
      <stop offset="0" stop-color="#0c4e93"/>
      <stop offset=".26" stop-color="#0d7aba"/>
      <stop offset=".42" stop-color="#0e98d5"/>
      <stop offset="1" stop-color="#0777be"/>
    </linearGradient>
    <linearGradient id="linear-gradient-8" x1="-1019.81" y1="-19293.7" x2="-1702.9" y2="-20187.24" gradientTransform="translate(19132.5 -7009.2) rotate(-107.66)" gradientUnits="userSpaceOnUse">
      <stop offset="0" stop-color="#0876bc"/>
      <stop offset=".15" stop-color="#067dc2"/>
      <stop offset=".39" stop-color="#0193d4"/>
      <stop offset=".43" stop-color="#0098d8"/>
      <stop offset="1" stop-color="#000838"/>
    </linearGradient>
  </defs>
  <path class="cls-1" d="m787.61,192.9c185.83,151.29,117.29,404.6-49.6,516.86-7.45,87.75-37.67,162.51-108.07,217.41-2.5,1.95-16.85,12.28-30.84,19.05,87.19-21.48,187.13-72.99,249.78-144.44,169.65-193.48,145.72-489.94-56.82-669.08l-4.45,60.21Z"/>
  <path class="cls-4" d="m788.86,192.85c184.53,150.74,115.48,405.17-50.92,517.76-3.48,40.06-11.77,78.96-27.39,114.79,149.15-87.59,223.92-244,230.06-385.03,2-46-6.04-68.89-8-83-9.24-44.57-25.75-73.52-43-104-22.3-39.39-49.14-77.95-97.54-120.66l-3.2,60.15Z"/>
  <path class="cls-6" d="m113.35,154.83C-57.16,348.32-30.68,650.22,172.47,829.31l66.29-8.75c-40.08-27.2-74.41-58.52-99.56-90.92C.3,550.66,78.87,311.82,234.14,216.58c23.13-81.02,65.17-157.99,145.98-197.05,12.44-6.1,24.97-11.4,37.57-16.06-114.66,9.63-224.16,60.36-304.35,151.36Z"/>
  <path class="cls-8" d="m25.71,596.93c1.55,7.44,68.04,115.6,82.02,139.63,22.22,31.29,45.51,54.74,85.08,89.61l45.61-5.22c-26.69-18.11-49.89-37.65-69.84-58.25C-6.99,581.4,69.22,317.72,234.07,216.83c10.68-37.48,25.4-74.08,46.13-106.49-49.15,21.1-95.67,52.44-137.83,94.85-54.23,54.56-156.94,198.09-116.67,391.74Z"/>
  <path class="cls-3" d="m390.47,492.11c98.58,132.11,89.56,208.07,40.63,273.05-86.19,114.45-350.57,24.03-422.49-226.8.85,6.15.59,5.85,2,12,4.78,20.88,8.72,42.13,15.91,63.15,26.6,77.82,74.86,154.06,138.09,209.77,148.29,130.65,322.65,139.31,426.69,21.22,58.73-66.66,76.11-134.77,57.15-212.99-1.38-4.33-3.58-11.1-6.38-18.92-5.09-14.22-12.13-31.91-19.72-44.69l-22.35-37.66-168.44-201.12-71.89-201c-93.26,125.8-45.75,261.39,30.81,363.99Z"/>
  <path class="cls-2" d="m390.65,491.71c98.58,132.11,89.56,208.07,40.63,273.05-86.19,114.45-352.37,17.62-424.29-233.21,9.19,66.33,35.71,136.27,76.62,197.82,22.88,34.42,46,62,81.17,93.51,20.19,18.09,41.83,34.49,64.58,48.32,57.75,19.58,98.79,30.76,168.09,18.59,120.93-21.23,258.41-173.62,131.2-338.42-106.64-138.15-189.42-192.97-198.25-332.56l29.44-91.09c-93.26,125.8-45.76,261.39,30.81,363.99Z"/>
  <path class="cls-5" d="m365.3,121.26c-46.32,53.03-41.61,127.48-13.46,178.64,35.61,64.73,138.33,118.94,193.14,173.09,77.53,76.6,93.52,128.2,101.48,152.63.71,2.18,1.36,4.14,1.98,5.88l-3.89-12.21c-17.98-62.71-38.3-86.28-104.63-177.13-68.9-94.36-74.36-141.67-67.8-185.69,29.55-198.33,360.92-158.98,482.09,167.46-16.22-119.74-80.6-220.88-161.4-292.07C644.5,1.22,470,1.22,366.55,119.82c-.42.48-.83.96-1.24,1.44Z"/>
  <path class="cls-7" d="m535.56,463.73c11.09,10.24,9.89,8.72,28.23,27.8,53.64,55.83,67.51,93.99,70.16,99.89l5.54,13.66c-13.7-44.29-32.58-72.53-98.91-163.38-68.9-94.36-74.36-141.67-67.8-185.69,29.55-198.33,464.83-135.66,485.83,298.34,5-44,3.21-71,.38-102.86-14.29-160.52-98.1-260.7-165.52-320.1-45.4-40-84.35-61.51-129.47-78.61-67.52-17.89-157.88,7.38-219.24,58.53-92.59,77.2-100.89,203.27,90.81,352.41Z"/>
</svg>