<?xml version="1.0" encoding="UTF-8"?>
<svg id="Layer_1" data-name="Layer 1" xmlns="http://www.w3.org/2000/svg" viewBox="0 0 4091 951">
  <defs>
    <style>
      .cls-1 {
        stroke-width: 0px;
      }
    </style>
  </defs>
  <g>
    <path class="cls-1" d="m787.92,193.56c185.83,151.29,117.29,404.6-49.6,516.86-7.45,87.75-37.67,162.51-108.07,217.41-2.5,1.95-16.85,12.28-30.84,19.05,87.19-21.48,187.13-72.99,249.78-144.44,169.65-193.48,145.72-489.94-56.82-669.08l-4.45,60.21Z"/>
    <path class="cls-1" d="m789.17,193.5c184.53,150.74,115.48,405.17-50.92,517.76-3.48,40.06-11.77,78.96-27.39,114.79,149.15-87.59,223.92-244,230.06-385.03,2-46-6.04-68.89-8-83-9.24-44.57-25.75-73.52-43-104-22.3-39.39-49.14-77.95-97.54-120.66l-3.2,60.15Z"/>
    <path class="cls-1" d="m113.66,155.49C-56.85,348.98-30.37,650.87,172.78,829.97l66.29-8.75c-40.08-27.2-74.41-58.52-99.56-90.92C.61,551.32,79.17,312.48,234.45,217.23c23.13-81.02,65.17-157.99,145.98-197.05,12.44-6.1,24.97-11.4,37.57-16.06-114.66,9.63-224.16,60.36-304.35,151.36Z"/>
    <path class="cls-1" d="m26.01,597.59c1.55,7.44,68.04,115.6,82.02,139.63,22.22,31.29,45.51,54.74,85.08,89.61l45.61-5.22c-26.69-18.11-49.89-37.65-69.84-58.25C-6.68,582.06,69.53,318.38,234.38,217.49c10.68-37.48,25.4-74.08,46.13-106.49-49.15,21.1-95.67,52.44-137.83,94.85-54.23,54.56-156.94,198.09-116.67,391.74Z"/>
    <path class="cls-1" d="m390.78,492.77c98.58,132.11,89.56,208.07,40.63,273.05-86.19,114.45-350.57,24.03-422.49-226.8.85,6.15.59,5.85,2,12,4.78,20.88,8.72,42.13,15.91,63.15,26.6,77.82,74.86,154.06,138.09,209.77,148.29,130.65,322.65,139.31,426.69,21.22,58.73-66.66,76.11-134.77,57.15-212.99-1.38-4.33-3.58-11.1-6.38-18.92-5.09-14.22-12.13-31.91-19.72-44.69l-22.35-37.66-168.44-201.12-71.89-201c-93.26,125.8-45.75,261.39,30.81,363.99Z"/>
    <path class="cls-1" d="m390.96,492.36c98.58,132.11,89.56,208.07,40.63,273.05-86.19,114.45-352.37,17.62-424.29-233.21,9.19,66.33,35.71,136.27,76.62,197.82,22.88,34.42,46,62,81.17,93.51,20.19,18.09,41.83,34.49,64.58,48.32,57.75,19.58,98.79,30.76,168.09,18.59,120.93-21.23,258.41-173.62,131.2-338.42-106.64-138.15-189.42-192.97-198.25-332.56l29.44-91.09c-93.26,125.8-45.76,261.39,30.81,363.99Z"/>
    <path class="cls-1" d="m365.61,121.92c-46.32,53.03-41.61,127.48-13.46,178.64,35.61,64.73,138.33,118.94,193.14,173.09,77.53,76.6,93.52,128.2,101.48,152.63.71,2.18,1.36,4.14,1.98,5.88l-3.89-12.21c-17.98-62.71-38.3-86.28-104.63-177.13-68.9-94.36-74.36-141.67-67.8-185.69,29.55-198.33,360.92-158.98,482.09,167.46-16.22-119.74-80.6-220.88-161.4-292.07C644.81,1.88,470.3,1.87,366.86,120.48c-.42.48-.83.96-1.24,1.44Z"/>
    <path class="cls-1" d="m535.87,464.39c11.09,10.24,9.89,8.72,28.23,27.8,53.64,55.83,67.51,93.99,70.16,99.89l5.54,13.66c-13.7-44.29-32.58-72.53-98.91-163.38-68.9-94.36-74.36-141.67-67.8-185.69,29.55-198.33,464.83-135.66,485.83,298.34,5-44,3.21-71,.38-102.86-14.29-160.52-98.1-260.7-165.52-320.1-45.4-40-84.35-61.51-129.47-78.61-67.52-17.89-157.88,7.38-219.24,58.53-92.59,77.2-100.89,203.27,90.81,352.41Z"/>
  </g>
  <g>
    <path class="cls-1" d="m1131.43,299.51c0-85.73,59.57-146.1,144.89-146.1,39.04,0,74.46,14.89,101.02,42.66l-16.5,15.29c-22.14-22.94-51.52-35.02-84.12-35.02-71.64,0-121.55,50.31-121.55,123.16s49.91,123.16,121.55,123.16c32.6,0,63.19-12.48,86.13-35.01l16.1,16.1c-26.97,26.97-62.79,41.86-102.63,41.86-85.32,0-144.89-60.37-144.89-146.1Z"/>
    <path class="cls-1" d="m1436.49,158.64h23.75v258.79h158.57v22.94h-182.32V158.64Z"/>
    <path class="cls-1" d="m1694.87,78.55h27.77l-36.22,49.1h-21.73l30.19-49.1Zm-29.38,80.09h23.75v281.73h-23.75V158.64Z"/>
    <path class="cls-1" d="m1994.3,158.64v281.73h-23.74l-178.7-243.5v243.5h-23.75V158.64h24.15l177.89,242.29v-242.29h24.15Z"/>
    <path class="cls-1" d="m2073.17,158.64h23.74v281.73h-23.74V158.64Z"/>
    <path class="cls-1" d="m2157.68,299.51c0-85.73,59.57-146.1,144.89-146.1,39.04,0,74.46,14.89,101.02,42.66l-16.5,15.29c-22.14-22.94-51.52-35.02-84.12-35.02-71.64,0-121.55,50.31-121.55,123.16s49.91,123.16,121.55,123.16c32.6,0,63.19-12.48,86.13-35.01l16.1,16.1c-26.97,26.97-62.79,41.86-102.63,41.86-85.32,0-144.89-60.37-144.89-146.1Z"/>
    <path class="cls-1" d="m2653.52,371.95h-167.43l-30.59,68.42h-25.76l126.38-281.73h27.37l126.38,281.73h-26.16l-30.18-68.42Zm-157.37-22.54h147.3l-73.65-165.82-73.65,165.82Z"/>
    <path class="cls-1" d="m3092.6,299.51c0,83.71-58.36,140.87-142.88,140.87h-97V158.64h97c84.52,0,142.88,57.15,142.88,140.86Zm-24.15,0c0-69.63-48.7-117.92-118.73-117.92h-73.25v235.85h73.25c70.03,0,118.73-48.3,118.73-117.93Z"/>
    <path class="cls-1" d="m3134.84,299.51c0-86.13,58.36-146.1,142.48-146.1s142.47,59.97,142.47,146.1-58.76,146.1-142.47,146.1-142.48-59.97-142.48-146.1Zm260.8,0c0-72.45-48.7-123.16-118.33-123.16s-118.73,50.71-118.73,123.16,49.1,123.16,118.73,123.16,118.33-50.71,118.33-123.16Z"/>
  </g>
  <g>
    <path class="cls-1" d="m1345.54,813.82v48.7h-214.11v-281.73h210.49v48.3h-155.76v67.21h148.51v47.09h-148.51v70.43h159.38Z"/>
    <path class="cls-1" d="m1702.93,580.79v281.73h-55.54v-190.37l-90.96,113.9h-11.27l-90.96-113.9v190.37h-55.54v-281.73h49.91l102.23,128.79,101.83-128.79h50.31Z"/>
    <path class="cls-1" d="m2006.37,680.2c0,60.77-41.05,99.81-105.05,99.81h-76.87v82.51h-55.54v-281.73h132.41c64,0,105.05,39.04,105.05,99.41Zm-55.94.4c0-30.18-20.12-49.5-51.52-49.5h-74.86v99.01h74.86c31.4,0,51.52-19.32,51.52-49.5Z"/>
    <path class="cls-1" d="m2152.87,767.94h-48.7v94.58h-55.54v-281.73h134.02c61.18,0,100.62,37.83,100.62,94.18,0,45.08-25.35,77.68-68.82,88.95l83.31,98.61h-68.02l-76.87-94.58Zm26.16-137.65h-75.26v89.75h75.26c30.99,0,49.1-16.5,49.1-44.67s-18.11-45.08-49.1-45.08Z"/>
    <path class="cls-1" d="m2553.31,813.82v48.7h-214.11v-281.73h210.49v48.3h-155.76v67.21h148.51v47.09h-148.51v70.43h159.38Z"/>
    <path class="cls-1" d="m2588.71,829.11l28.98-41.45c23.75,19.32,57.15,30.59,90.96,30.59,37.43,0,61.18-14.09,61.18-36.63,0-21.33-19.72-32.6-63.99-37.83-76.88-9.26-110.28-35.02-110.28-85.33s45.88-83.71,112.29-83.71c38.23,0,76.47,12.48,105.45,33.81l-27.37,39.44c-22.54-16.5-49.91-25.35-76.47-25.35-35.02,0-59.16,14.49-59.16,35.01s18.11,31.39,61.98,37.03c78.08,10.46,113.09,37.03,113.09,86.13,0,52.73-46.68,87.74-116.72,87.74-43.87,0-88.14-14.08-119.94-39.44Z"/>
    <path class="cls-1" d="m3062.82,807.78h-145.29l-23.34,54.74h-60.37l126.38-281.73h60.77l125.97,281.73h-60.77l-23.35-54.74Zm-124.76-49.1h104.64l-52.32-122.75-52.32,122.75Zm73.25-204.05h-47.89l28.98-56.75h61.98l-43.07,56.75Z"/>
    <path class="cls-1" d="m3284.17,767.94h-48.7v94.58h-55.54v-281.73h134.02c61.18,0,100.62,37.83,100.62,94.18,0,45.08-25.36,77.68-68.83,88.95l83.31,98.61h-68.02l-76.87-94.58Zm26.16-137.65h-75.26v89.75h75.26c30.99,0,49.1-16.5,49.1-44.67s-18.11-45.08-49.1-45.08Z"/>
    <path class="cls-1" d="m3470.5,580.79h55.54v281.73h-55.54v-281.73Z"/>
    <path class="cls-1" d="m3575.13,721.65c0-88.54,59.16-147.3,148.51-147.3s148.11,58.76,148.11,147.3-59.16,147.31-148.11,147.31-148.51-58.76-148.51-147.31Zm240.28,0c0-57.55-37.03-96.59-91.76-96.59s-92.16,39.04-92.16,96.59,37.03,96.6,92.16,96.6,91.76-39.04,91.76-96.6Z"/>
  </g>
  <path class="cls-1" d="m4091.07,665.36c0,54.25-37.05,90.64-91.96,90.64s-91.3-36.39-91.3-90.64,37.05-90.64,91.3-90.64,91.96,37.05,91.96,90.64Zm-21.83,0c0-41.68-27.13-69.47-70.13-69.47s-69.47,27.79-69.47,69.47,27.79,69.47,69.47,69.47,70.13-27.13,70.13-69.47Zm-48.3,12.57l19.19,33.08h-21.17l-17.86-30.43h-18.53v30.43h-17.86v-93.29h41.68c20.51,0,34.4,13.23,34.4,31.76,0,13.23-7.94,23.82-19.85,28.45Zm1.99-28.45c0-8.6-6.62-13.89-16.54-13.89h-23.82v27.79h23.82c9.92,0,16.54-5.29,16.54-13.89Z"/>
</svg>