<?xml version="1.0" encoding="UTF-8"?>
<svg id="Layer_1" data-name="Layer 1" xmlns="http://www.w3.org/2000/svg" viewBox="0 0 1294.16 1391.81">
  <defs>
    <style>
      .cls-1 {
        stroke-width: 0px;
      }
    </style>
  </defs>
  <g>
    <path class="cls-1" d="m973.84,190.26c185.83,151.29,117.29,404.6-49.6,516.86-7.45,87.75-37.67,162.51-108.07,217.41-2.5,1.95-16.85,12.28-30.84,19.05,87.19-21.48,187.13-72.99,249.78-144.44,169.65-193.48,145.72-489.94-56.82-669.08l-4.45,60.21Z"/>
    <path class="cls-1" d="m975.09,190.2c184.53,150.74,115.48,405.17-50.92,517.76-3.48,40.06-11.77,78.96-27.39,114.79,149.15-87.59,223.92-244,230.06-385.03,2-46-6.04-68.89-8-83-9.24-44.57-25.75-73.52-43-104-22.3-39.39-49.14-77.95-97.54-120.66l-3.2,60.15Z"/>
    <path class="cls-1" d="m299.57,152.18c-170.51,193.49-144.02,495.39,59.12,674.48l66.29-8.75c-40.08-27.2-74.41-58.52-99.56-90.92-138.91-178.97-60.34-417.82,94.94-513.06,23.13-81.02,65.17-157.99,145.98-197.05,12.44-6.1,24.97-11.4,37.57-16.06-114.66,9.63-224.16,60.36-304.35,151.36Z"/>
    <path class="cls-1" d="m211.93,594.29c1.55,7.44,68.04,115.6,82.02,139.63,22.22,31.29,45.51,54.74,85.08,89.61l45.61-5.22c-26.69-18.11-49.89-37.65-69.84-58.25-175.57-181.3-99.36-444.98,65.49-545.86,10.68-37.48,25.4-74.08,46.13-106.49-49.15,21.1-95.67,52.44-137.83,94.85-54.23,54.56-156.94,198.09-116.67,391.74Z"/>
    <path class="cls-1" d="m576.69,489.46c98.58,132.11,89.56,208.07,40.63,273.05-86.19,114.45-350.57,24.03-422.49-226.8.85,6.15.59,5.85,2,12,4.78,20.88,8.72,42.13,15.91,63.15,26.6,77.82,74.86,154.06,138.09,209.77,148.29,130.65,322.65,139.31,426.69,21.22,58.73-66.66,76.11-134.77,57.15-212.99-1.38-4.33-3.58-11.1-6.38-18.92-5.09-14.22-12.13-31.91-19.72-44.69l-22.35-37.66-168.44-201.12-71.89-201c-93.26,125.8-45.75,261.39,30.81,363.99Z"/>
    <path class="cls-1" d="m576.87,489.06c98.58,132.11,89.56,208.07,40.63,273.05-86.19,114.45-352.37,17.62-424.29-233.21,9.19,66.33,35.71,136.27,76.62,197.82,22.88,34.42,46,62,81.17,93.51,20.19,18.09,41.83,34.49,64.58,48.32,57.75,19.58,98.79,30.76,168.09,18.59,120.93-21.23,258.41-173.62,131.2-338.42-106.64-138.15-189.42-192.97-198.25-332.56l29.44-91.09c-93.26,125.8-45.76,261.39,30.81,363.99Z"/>
    <path class="cls-1" d="m551.53,118.61c-46.32,53.03-41.61,127.48-13.46,178.64,35.61,64.73,138.33,118.94,193.14,173.09,77.53,76.6,93.52,128.2,101.48,152.63.71,2.18,1.36,4.14,1.98,5.88l-3.89-12.21c-17.98-62.71-38.3-86.28-104.63-177.13-68.9-94.36-74.36-141.67-67.8-185.69,29.55-198.33,360.92-158.98,482.09,167.46-16.22-119.74-80.6-220.88-161.4-292.07C830.72-1.43,656.22-1.43,552.77,117.18c-.42.48-.83.96-1.24,1.44Z"/>
    <path class="cls-1" d="m721.79,461.08c11.09,10.24,9.89,8.72,28.23,27.8,53.64,55.83,67.51,93.99,70.16,99.89l5.54,13.66c-13.7-44.29-32.58-72.53-98.91-163.38-68.9-94.36-74.36-141.67-67.8-185.69,29.55-198.33,464.83-135.66,485.83,298.34,5-44,3.21-71,.38-102.86-14.29-160.52-98.1-260.7-165.52-320.1-45.4-40-84.35-61.51-129.47-78.61-67.52-17.89-157.88,7.38-219.24,58.53-92.59,77.2-100.89,203.27,90.81,352.41Z"/>
  </g>
  <path class="cls-1" d="m100.59,1142.95c0-37.34,25.95-63.64,63.11-63.64,17.01,0,32.43,6.49,44,18.58l-7.19,6.66c-9.64-9.99-22.44-15.25-36.64-15.25-31.21,0-52.94,21.91-52.94,53.65s21.74,53.65,52.94,53.65c14.2,0,27.52-5.43,37.52-15.25l7.01,7.01c-11.75,11.75-27.35,18.23-44.7,18.23-37.17,0-63.11-26.3-63.11-63.64Z"/>
  <path class="cls-1" d="m233.47,1081.59h10.34v112.72h69.07v9.99h-79.42v-122.72Z"/>
  <path class="cls-1" d="m346.01,1046.71h12.1l-15.78,21.39h-9.47l13.15-21.39Zm-12.8,34.89h10.34v122.72h-10.34v-122.72Z"/>
  <path class="cls-1" d="m476.44,1081.59v122.72h-10.34l-77.84-106.06v106.06h-10.34v-122.72h10.52l77.49,105.54v-105.54h10.52Z"/>
  <path class="cls-1" d="m510.8,1081.59h10.34v122.72h-10.34v-122.72Z"/>
  <path class="cls-1" d="m547.61,1142.95c0-37.34,25.95-63.64,63.11-63.64,17.01,0,32.43,6.49,44,18.58l-7.19,6.66c-9.64-9.99-22.44-15.25-36.64-15.25-31.21,0-52.94,21.91-52.94,53.65s21.74,53.65,52.94,53.65c14.2,0,27.52-5.43,37.52-15.25l7.01,7.01c-11.75,11.75-27.35,18.23-44.7,18.23-37.16,0-63.11-26.3-63.11-63.64Z"/>
  <path class="cls-1" d="m763.59,1174.51h-72.93l-13.32,29.8h-11.22l55.05-122.72h11.92l55.05,122.72h-11.4l-13.15-29.8Zm-68.55-9.82h64.16l-32.08-72.23-32.08,72.23Z"/>
  <path class="cls-1" d="m954.85,1142.95c0,36.46-25.42,61.36-62.24,61.36h-42.25v-122.72h42.25c36.82,0,62.24,24.89,62.24,61.36Zm-10.52,0c0-30.33-21.21-51.37-51.72-51.37h-31.91v102.73h31.91c30.5,0,51.72-21.04,51.72-51.37Z"/>
  <path class="cls-1" d="m973.25,1142.95c0-37.52,25.42-63.64,62.06-63.64s62.06,26.12,62.06,63.64-25.6,63.64-62.06,63.64-62.06-26.12-62.06-63.64Zm113.6,0c0-31.56-21.21-53.65-51.54-53.65s-51.72,22.09-51.72,53.65,21.39,53.65,51.72,53.65,51.54-22.09,51.54-53.65Z"/>
  <path class="cls-1" d="m95.42,1366.98v21.21H2.15v-122.72h91.69v21.04H26v29.28h64.69v20.51H26v30.68h69.42Z"/>
  <path class="cls-1" d="m251.09,1265.47v122.72h-24.19v-82.92l-39.62,49.61h-4.91l-39.62-49.61v82.92h-24.19v-122.72h21.74l44.53,56.1,44.35-56.1h21.91Z"/>
  <path class="cls-1" d="m383.27,1308.77c0,26.47-17.88,43.48-45.76,43.48h-33.48v35.94h-24.19v-122.72h57.68c27.88,0,45.76,17.01,45.76,43.3Zm-24.37.17c0-13.15-8.76-21.56-22.44-21.56h-32.61v43.13h32.61c13.68,0,22.44-8.41,22.44-21.56Z"/>
  <path class="cls-1" d="m447.08,1346.99h-21.21v41.2h-24.19v-122.72h58.38c26.65,0,43.83,16.48,43.83,41.02,0,19.64-11.04,33.84-29.98,38.74l36.29,42.95h-29.63l-33.48-41.2Zm11.39-59.96h-32.78v39.09h32.78c13.5,0,21.39-7.19,21.39-19.46s-7.89-19.63-21.39-19.63Z"/>
  <path class="cls-1" d="m621.5,1366.98v21.21h-93.27v-122.72h91.69v21.04h-67.85v29.28h64.69v20.51h-64.69v30.68h69.42Z"/>
  <path class="cls-1" d="m636.93,1373.64l12.62-18.06c10.34,8.41,24.89,13.32,39.62,13.32,16.3,0,26.65-6.14,26.65-15.95,0-9.29-8.59-14.2-27.87-16.48-33.49-4.03-48.04-15.25-48.04-37.17s19.99-36.46,48.91-36.46c16.65,0,33.31,5.43,45.93,14.73l-11.92,17.18c-9.82-7.19-21.74-11.04-33.31-11.04-15.25,0-25.77,6.31-25.77,15.25s7.89,13.67,27,16.13c34.01,4.56,49.26,16.13,49.26,37.52,0,22.97-20.34,38.22-50.84,38.22-19.11,0-38.39-6.14-52.24-17.18Z"/>
  <path class="cls-1" d="m843.44,1364.35h-63.29l-10.17,23.84h-26.3l55.05-122.72h26.47l54.87,122.72h-26.47l-10.17-23.84Zm-54.35-21.39h45.58l-22.79-53.47-22.79,53.47Zm31.91-88.88h-20.86l12.62-24.72h27l-18.76,24.72Z"/>
  <path class="cls-1" d="m939.86,1346.99h-21.21v41.2h-24.19v-122.72h58.38c26.65,0,43.83,16.48,43.83,41.02,0,19.64-11.05,33.84-29.98,38.74l36.29,42.95h-29.63l-33.48-41.2Zm11.4-59.96h-32.78v39.09h32.78c13.5,0,21.39-7.19,21.39-19.46s-7.89-19.63-21.39-19.63Z"/>
  <path class="cls-1" d="m1021.02,1265.47h24.19v122.72h-24.19v-122.72Z"/>
  <path class="cls-1" d="m1066.6,1326.83c0-38.57,25.77-64.16,64.69-64.16s64.52,25.6,64.52,64.16-25.77,64.16-64.52,64.16-64.69-25.6-64.69-64.16Zm104.66,0c0-25.07-16.13-42.07-39.97-42.07s-40.15,17.01-40.15,42.07,16.13,42.08,40.15,42.08,39.97-17.01,39.97-42.08Z"/>
  <path class="cls-1" d="m1293.89,1302.76c0,24.24-16.55,40.5-41.09,40.5s-40.79-16.26-40.79-40.5,16.55-40.5,40.79-40.5,41.09,16.55,41.09,40.5Zm-9.75,0c0-18.62-12.12-31.04-31.33-31.04s-31.04,12.41-31.04,31.04,12.41,31.04,31.04,31.04,31.33-12.12,31.33-31.04Zm-21.58,5.62l8.57,14.78h-9.46l-7.98-13.6h-8.28v13.6h-7.98v-41.68h18.62c9.16,0,15.37,5.91,15.37,14.19,0,5.91-3.55,10.64-8.87,12.71Zm.89-12.71c0-3.84-2.96-6.21-7.39-6.21h-10.64v12.41h10.64c4.43,0,7.39-2.36,7.39-6.21Z"/>
</svg>